<svg xmlns="http://www.w3.org/2000/svg" xmlns:xlink="http://www.w3.org/1999/xlink" width="1080" zoomAndPan="magnify" viewBox="0 0 810 1012.49997" height="1350" preserveAspectRatio="xMidYMid meet" version="1.0"><defs><clipPath id="8b57a7b6ab"><path d="M 328.449219 405.015625 L 356.710938 405.015625 L 356.710938 611.402344 L 328.449219 611.402344 Z M 328.449219 405.015625 " clip-rule="nonzero"/></clipPath><clipPath id="dc0737c71c"><path d="M 450.753906 405.015625 L 479.015625 405.015625 L 479.015625 611.402344 L 450.753906 611.402344 Z M 450.753906 405.015625 " clip-rule="nonzero"/></clipPath><clipPath id="e9561f6111"><path d="M 326.726562 405.015625 L 569.605469 405.015625 L 569.605469 611.164062 L 326.726562 611.164062 Z M 326.726562 405.015625 " clip-rule="nonzero"/></clipPath><clipPath id="591d6e5b57"><path d="M 326.726562 447.746094 L 326.726562 568.671875 C 326.726562 592.273438 345.855469 611.402344 369.457031 611.402344 L 527.160156 611.402344 C 550.757812 611.402344 569.890625 592.273438 569.890625 568.671875 L 569.890625 447.746094 C 569.890625 424.148438 550.757812 405.015625 527.160156 405.015625 L 369.457031 405.015625 C 345.855469 405.015625 326.726562 424.148438 326.726562 447.746094 Z M 326.726562 447.746094 " clip-rule="nonzero"/></clipPath></defs><g clip-path="url(#8b57a7b6ab)"><path fill="#aa78ab" d="M 328.449219 405.015625 L 356.710938 405.015625 L 356.710938 611.457031 L 328.449219 611.457031 Z M 328.449219 405.015625 " fill-opacity="1" fill-rule="nonzero"/></g><g clip-path="url(#dc0737c71c)"><path fill="#aa78ab" d="M 450.753906 405.015625 L 479.015625 405.015625 L 479.015625 611.457031 L 450.753906 611.457031 Z M 450.753906 405.015625 " fill-opacity="1" fill-rule="nonzero"/></g><g clip-path="url(#e9561f6111)"><g clip-path="url(#591d6e5b57)"><path fill="#4f156a" d="M 326.726562 524.65625 L 354.699219 488.113281 L 390.785156 541.347656 C 390.785156 541.347656 448.082031 429.917969 569.886719 405.105469 C 515.164062 432.109375 418.339844 540.351562 401.617188 611.273438 C 355.148438 549.917969 326.726562 524.65625 326.726562 524.65625 " fill-opacity="1" fill-rule="nonzero"/></g></g></svg>